<svg xmlns="http://www.w3.org/2000/svg" viewBox="0 0 64 64" id="achievement"><path fill="#84dbff" d="M62 48.84H2c-1.1 0-2-.9-2-2V6.16c0-1.1.9-2 2-2h60c1.1 0 2 .9 2 2v40.68a2 2 0 0 1-2 2z"></path><path fill="#f2f2f2" d="M58.42 15.56v21.89c-3.21 0-5.82 2.6-5.82 5.81H11.4c0-3.21-2.6-5.81-5.82-5.81V15.56c3.21 0 5.82-2.6 5.82-5.81h41.2c0 3.21 2.6 5.81 5.82 5.81z"></path><path fill="#ff7157" d="M23.89 14.63h16.54v5.02H23.89z"></path><path fill="#4bdcc5" d="M14.03 23.54h35.95v3.13H14.03zM14.03 29.39h35.95v3.13H14.03zM14.03 35.25h35.95v3.13H14.03z"></path><path fill="#ff7058" d="m53.06 49.09 4.59 7.94-2.06-.37-.59-.11-.96-.18-.33.92-.21.58-.7 1.97-4.59-7.95z"></path><path fill="#e8533f" d="m51.68 49.89 3.91 6.77-1.55-.29-.54 1.5-3.91-6.78z"></path><path fill="#ff7058" d="m43.12 49.09-4.59 7.94 2.06-.37.59-.11.96-.18.33.92.21.58.7 1.97 4.59-7.95z"></path><path fill="#e8533f" d="m44.5 49.89-3.91 6.77 1.55-.29.54 1.5 3.91-6.78z"></path><path fill="#f4c95a" d="M58.11 43.84c0 1.25-1.78 2.14-2.23 3.23-.47 1.13.14 3.01-.71 3.86-.85.85-2.73.24-3.86.71-1.09.45-1.98 2.23-3.23 2.23s-2.14-1.78-3.23-2.23c-1.13-.47-3.01.14-3.86-.71-.85-.85-.24-2.73-.71-3.86-.45-1.09-2.23-1.98-2.23-3.23s1.78-2.14 2.23-3.23c.47-1.13-.14-3.01.71-3.86.85-.85 2.73-.24 3.86-.71 1.09-.45 1.98-2.23 3.23-2.23s2.14 1.78 3.23 2.23c1.13.47 3.01-.14 3.86.71.85.85.24 2.73.71 3.86.45 1.09 2.23 1.98 2.23 3.23z"></path><path fill="#e2a144" d="M55.78 43.84c0 .96-1.36 1.64-1.71 2.48-.36.87.11 2.31-.54 2.96-.65.65-2.09.18-2.96.54-.83.35-1.52 1.71-2.48 1.71s-1.64-1.36-2.48-1.71c-.87-.36-2.31.11-2.96-.54-.65-.65-.18-2.09-.54-2.96-.35-.83-1.71-1.52-1.71-2.48s1.36-1.64 1.71-2.48c.36-.86-.11-2.31.54-2.96.65-.65 2.09-.18 2.96-.54.83-.35 1.52-1.71 2.48-1.71s1.64 1.36 2.48 1.71c.86.36 2.31-.11 2.96.54.65.65.18 2.09.54 2.96.34.83 1.71 1.52 1.71 2.48z"></path><path fill="#edaf4b" d="M55.17 43.84c0 .88-1.26 1.51-1.57 2.28-.33.8.1 2.13-.5 2.73-.6.6-1.93.17-2.73.5-.77.32-1.4 1.57-2.28 1.57-.88 0-1.51-1.26-2.28-1.57-.8-.33-2.13.1-2.73-.5-.6-.6-.17-1.93-.5-2.73-.32-.77-1.57-1.4-1.57-2.28 0-.88 1.26-1.51 1.57-2.28.33-.8-.1-2.13.5-2.73.6-.6 1.93-.17 2.73-.5.77-.32 1.4-1.57 2.28-1.57.88 0 1.51 1.26 2.28 1.57.8.33 2.13-.1 2.73.5.6.6.17 1.93.5 2.73.32.76 1.57 1.39 1.57 2.28z"></path><path fill="#fff" d="m46.47 47.09-2.46-2.45.83-.83 1.63 1.64 4.87-4.87.83.82z"></path></svg>